<svg width="20" height="19" viewBox="0 0 20 19" fill="none" xmlns="http://www.w3.org/2000/svg">
<path d="M9.95131 18.0026C9.69131 18.0026 9.43131 17.9426 9.21131 17.7726C6.55131 15.8326 3.78131 13.6926 1.73131 10.7526C1.01131 9.71261 0.0413058 8.10261 0.00130582 6.06261C-0.0486942 3.61261 1.34131 1.36261 3.46131 0.442608C5.59131 -0.477392 8.12131 0.0626086 9.91131 1.82261L9.99131 1.90261C10.0713 1.82261 10.1513 1.74261 10.2313 1.67261C12.2313 -0.147392 15.0213 -0.507392 17.1513 0.772608C19.3613 2.10261 20.4413 4.84261 19.8013 7.45261C19.2313 9.74261 17.8313 11.4826 16.5313 12.8926C14.7513 14.8126 12.6713 16.4126 10.8713 17.7226C10.6513 17.8826 10.3013 18.0126 9.94131 18.0126L9.95131 18.0026Z" fill="#FF0034"/>
</svg>
