<svg width="23" height="20" viewBox="0 0 23 20" fill="none" xmlns="http://www.w3.org/2000/svg">
<path d="M12.9316 18.409C12.5909 18.7501 12.1328 18.9569 11.6452 18.991H11.5018C10.9614 18.991 10.446 18.7783 10.072 18.404L10.0689 18.4008L2.82526 11.2133L2.82529 11.2133L2.81863 11.2068C0.473784 8.92297 0.385183 5.19829 2.61816 2.80451C4.82829 0.532632 8.45367 0.387785 10.8445 2.4732L11.5018 3.04656L12.1592 2.4732C14.5499 0.387876 18.1751 0.53262 20.3852 2.80421C22.6186 5.20302 22.5299 8.92296 20.18 11.2118L20.18 11.2118L20.1731 11.2186L12.9345 18.4061L12.9316 18.409Z" stroke="black" stroke-width="2"/>
</svg>
