<svg width="120" height="24" viewBox="0 0 120 24" fill="none" xmlns="http://www.w3.org/2000/svg">
<path d="M12.3139 6.18333L11.6641 5.55288C11.5296 5.42238 11.4001 5.29733 11.2744 5.17585C11.0546 4.96351 10.8461 4.76206 10.6414 4.56141C9.00067 2.95363 6.7423 2.49843 4.93294 3.27967L4.93277 3.27973C3.11902 4.06244 1.85697 6.05591 1.90106 8.28774L1.90106 8.2878C1.93437 9.97965 2.64322 11.4798 3.67629 12.964L3.67657 12.9644C5.93141 16.2077 8.99031 18.6439 12.2533 21.0298C14.6307 19.2988 16.895 17.5125 18.8502 15.3974L19.5111 16.0083L18.8502 15.3974C20.5093 13.6026 21.8746 11.7871 22.4325 9.53909L22.4326 9.53886C23.0206 7.17223 22.0148 4.70667 20.1001 3.55451L12.3139 6.18333ZM12.3139 6.18333L12.9405 5.52971M12.3139 6.18333L12.9405 5.52971M12.9405 5.52971C13.0846 5.37935 13.212 5.24125 13.3317 5.11141C13.5615 4.86221 13.7632 4.64342 14.0019 4.42667L14.0022 4.42636M12.9405 5.52971L14.0022 4.42636M14.0022 4.42636C15.8653 2.73241 18.2782 2.4589 20.0999 3.55442L14.0022 4.42636ZM12.0872 21.1505C12.0874 21.1503 12.0877 21.1502 12.0879 21.15C12.0877 21.1501 12.0875 21.1503 12.0873 21.1504L12.0872 21.1505ZM12.1764 21.1002L12.1834 21.0999C12.1896 21.0997 12.2038 21.0997 12.2249 21.1022C12.2452 21.1045 12.2813 21.1102 12.3277 21.1253C12.3732 21.1402 12.444 21.169 12.5214 21.2254L12.1764 21.1002Z" stroke="black" stroke-width="1.8"/>
<path d="M53.8104 19.7478C53.8318 19.4539 53.7079 19.1681 53.4787 18.9827C51.2792 17.2037 49.9 14.5525 49.9 11.5868C49.9 6.27627 54.3875 1.9 60.0098 1.9C65.6196 1.9 70.1078 6.27565 70.1078 11.5868C70.1078 16.8966 65.6092 21.2735 59.998 21.2735C59.0656 21.2735 58.1798 21.1544 57.327 20.9277C57.1569 20.8825 56.9772 20.8882 56.8103 20.944L53.6464 22.0022L53.8104 19.7478Z" stroke="black" stroke-width="1.8" stroke-linejoin="round"/>
<path d="M58.1498 8.79526C58.2222 8.80569 58.2825 8.81612 58.3548 8.82655C59.428 9.05597 60.5252 10.0362 61.3693 10.6202C61.8396 10.9539 62.2375 10.9227 62.7078 10.6098C63.7086 9.92153 64.7456 9.26454 65.7705 8.5867C66.0478 8.39899 66.3372 8.20085 66.6748 8.45113C67.0486 8.72227 66.8195 9.01426 66.6266 9.2854C65.6137 10.6828 64.6129 12.0802 63.588 13.4672C62.8886 14.4266 61.8999 14.5621 60.8388 13.8843C60.1032 13.4046 59.3436 12.9562 58.6201 12.4556C58.1378 12.1219 57.7398 12.1636 57.2816 12.4765C56.2688 13.1647 55.2438 13.8217 54.2189 14.4996C53.9416 14.6873 53.6522 14.8854 53.3145 14.6247C52.9769 14.3744 53.1578 14.0929 53.3387 13.8322C54.3877 12.393 55.4247 10.9539 56.4737 9.51482C56.8234 9.02469 57.4746 8.73269 58.1498 8.79526Z" fill="black"/>
<rect x="98" y="2" width="20" height="20" rx="5" stroke="black" stroke-width="1.8"/>
<line x1="108.1" y1="6.9" x2="108.1" y2="17.1" stroke="black" stroke-width="1.8" stroke-linecap="round"/>
<line x1="102.9" y1="11.8" x2="113.1" y2="11.8" stroke="black" stroke-width="1.8" stroke-linecap="round"/>
</svg>
