<svg width="96" height="24" viewBox="0 0 96 24" fill="none" xmlns="http://www.w3.org/2000/svg">
<path d="M12.3139 6.18333L11.6641 5.55288C11.5296 5.42238 11.4001 5.29733 11.2744 5.17585C11.0546 4.96351 10.846 4.76206 10.6414 4.56141C9.00066 2.95363 6.7423 2.49843 4.93293 3.27967L4.93277 3.27973C3.11901 4.06244 1.85696 6.05591 1.90105 8.28774L1.90105 8.2878C1.93436 9.97965 2.64321 11.4798 3.67628 12.964L3.67657 12.9644C5.9314 16.2077 8.9903 18.6439 12.2533 21.0298C14.6307 19.2988 16.895 17.5125 18.8502 15.3974L19.5111 16.0083L18.8502 15.3974C20.5093 13.6026 21.8745 11.7871 22.4325 9.53909L22.4325 9.53886C23.0206 7.17223 22.0148 4.70667 20.1001 3.55451L12.3139 6.18333ZM12.3139 6.18333L12.9405 5.52971M12.3139 6.18333L12.9405 5.52971M12.9405 5.52971C13.0846 5.37935 13.212 5.24125 13.3317 5.11141C13.5615 4.86221 13.7632 4.64342 14.0019 4.42667L14.0022 4.42636M12.9405 5.52971L14.0022 4.42636M14.0022 4.42636C15.8652 2.73241 18.2782 2.4589 20.0999 3.55442L14.0022 4.42636ZM12.0872 21.1505C12.0874 21.1503 12.0877 21.1502 12.0879 21.15C12.0877 21.1501 12.0875 21.1503 12.0873 21.1504L12.0872 21.1505ZM12.1764 21.1002L12.1834 21.0999C12.1896 21.0997 12.2037 21.0997 12.2249 21.1022C12.2452 21.1045 12.2813 21.1102 12.3277 21.1253C12.3732 21.1402 12.444 21.169 12.5214 21.2254L12.1764 21.1002Z" fill="#FE0135" stroke="#FE0135" stroke-width="1.8"/>
<mask id="path-2-inside-1_2550_929" fill="white">
<path fill-rule="evenodd" clip-rule="evenodd" d="M57.4517 17.6305C58.435 15.9834 59 14.0577 59 12C59 5.92487 54.0751 1 48 1C41.9249 1 37 5.92487 37 12C37 18.0751 41.9249 23 48 23C50.062 23 51.9915 22.4326 53.6409 21.4455L58.8478 22.8407L57.4517 17.6305Z"/>
</mask>
<path d="M57.4517 17.6305L55.9062 16.7078C55.6568 17.1255 55.5871 17.6264 55.7131 18.0963L57.4517 17.6305ZM53.6409 21.4455L54.1068 19.7068C53.6362 19.5807 53.1346 19.6508 52.7165 19.901L53.6409 21.4455ZM58.8478 22.8407L58.3819 24.5793C59.0031 24.7458 59.6659 24.5682 60.1206 24.1135C60.5753 23.6587 60.7529 22.996 60.5865 22.3748L58.8478 22.8407ZM57.2 12C57.2 13.7239 56.7276 15.3319 55.9062 16.7078L58.9973 18.5531C60.1425 16.6348 60.8 14.3915 60.8 12H57.2ZM48 2.8C53.081 2.8 57.2 6.91898 57.2 12H60.8C60.8 4.93076 55.0692 -0.8 48 -0.8V2.8ZM38.8 12C38.8 6.91898 42.919 2.8 48 2.8V-0.8C40.9308 -0.8 35.2 4.93076 35.2 12H38.8ZM48 21.2C42.919 21.2 38.8 17.081 38.8 12H35.2C35.2 19.0692 40.9308 24.8 48 24.8V21.2ZM52.7165 19.901C51.3387 20.7256 49.7275 21.2 48 21.2V24.8C50.3965 24.8 52.6443 24.1397 54.5653 22.99L52.7165 19.901ZM53.175 23.1842L58.3819 24.5793L59.3137 21.102L54.1068 19.7068L53.175 23.1842ZM60.5865 22.3748L59.1904 17.1646L55.7131 18.0963L57.1091 23.3065L60.5865 22.3748Z" fill="black" mask="url(#path-2-inside-1_2550_929)"/>
<g clip-path="url(#clip0_2550_929)">
<path d="M74.6838 3.95005L93.5703 3.95005L84.1272 20.306L81.3608 11.2374C81.3208 11.1063 81.2514 10.9861 81.1579 10.8859L74.6838 3.95005Z" stroke="black" stroke-width="1.8" stroke-linejoin="round"/>
</g>
<defs>
<clipPath id="clip0_2550_929">
<rect width="24" height="24" fill="white" transform="translate(72)"/>
</clipPath>
</defs>
</svg>
